<svg width="42" height="43" viewBox="0 0 42 43" fill="none" xmlns="http://www.w3.org/2000/svg">
<path d="M21.1982 0.909836L21.78 0.91783C32.9902 1.22626 41.9933 10.4206 41.9933 21.7049C41.9933 33.163 32.6771 42.5 21.1982 42.5C9.7401 42.5 0.403106 33.163 0.403106 21.7049C0.403106 10.226 9.7401 0.909836 21.1982 0.909836ZM25.3156 13.3869C24.6918 12.763 23.7144 12.763 23.1113 13.3869L15.8539 20.6028C15.5627 20.8939 15.3964 21.289 15.3964 21.7049C15.3964 22.1208 15.5627 22.5159 15.8539 22.8071L23.1113 30.023C23.4025 30.3349 23.7976 30.4804 24.1927 30.4804C24.6086 30.4804 25.0037 30.3349 25.3156 30.023C25.9187 29.3991 25.9187 28.4217 25.2948 27.8187L19.1603 21.7049L25.2948 15.5912C25.9187 14.9881 25.9187 13.9899 25.3156 13.3869Z" fill="#FFE2CA"/>
</svg>
