<svg width="43" height="43" viewBox="0 0 43 43" fill="none" xmlns="http://www.w3.org/2000/svg">
<path opacity="0.6" d="M21.5 0L20.8985 0.00826505C9.30826 0.327151 0 9.83315 0 21.5C0 33.3465 9.632 43 21.5 43C33.3465 43 43 33.3465 43 21.5C43 9.632 33.3465 0 21.5 0ZM17.243 12.9C17.888 12.255 18.8985 12.255 19.522 12.9L27.0255 20.3605C27.3265 20.6615 27.4985 21.07 27.4985 21.5C27.4985 21.93 27.3265 22.3385 27.0255 22.6395L19.522 30.1C19.221 30.4225 18.8125 30.573 18.404 30.573C17.974 30.573 17.5655 30.4225 17.243 30.1C16.6195 29.455 16.6195 28.4445 17.2645 27.821L23.607 21.5L17.2645 15.179C16.6195 14.5555 16.6195 13.5235 17.243 12.9Z" fill="#FFE2CA"/>
</svg>
