<svg width="43" height="43" viewBox="0 0 43 43" fill="none" xmlns="http://www.w3.org/2000/svg">
<path opacity="0.5" d="M21.5 0L22.1015 0.00826505C33.6917 0.327151 43 9.83315 43 21.5C43 33.3465 33.368 43 21.5 43C9.6535 43 0 33.3465 0 21.5C0 9.632 9.6535 0 21.5 0ZM25.757 12.9C25.112 12.255 24.1015 12.255 23.478 12.9L15.9745 20.3605C15.6735 20.6615 15.5015 21.07 15.5015 21.5C15.5015 21.93 15.6735 22.3385 15.9745 22.6395L23.478 30.1C23.779 30.4225 24.1875 30.573 24.596 30.573C25.026 30.573 25.4345 30.4225 25.757 30.1C26.3805 29.455 26.3805 28.4445 25.7355 27.821L19.393 21.5L25.7355 15.179C26.3805 14.5555 26.3805 13.5235 25.757 12.9Z" fill="#FFE2CA"/>
</svg>
