<svg width="163" height="32" viewBox="0 0 163 32" fill="none" xmlns="http://www.w3.org/2000/svg">
<g clip-path="url(#clip0_1_337)">
<path d="M30.4105 6.24832L29.4392 7.74753C29.2943 7.59003 29.1764 7.46446 29.0612 7.33641C27.4039 5.42262 25.3552 3.90138 23.0589 2.87952C21.5033 2.22947 19.8483 1.86034 18.1682 1.78871C17.1223 1.72163 16.0726 1.74736 15.031 1.86559C12.6609 2.16998 10.3845 2.99666 8.36022 4.28808C6.86807 5.20128 5.554 6.3866 4.48386 7.78466C2.75084 10.0464 1.77561 12.8141 1.7013 15.6816C1.58066 18.5515 2.42535 21.3776 4.09581 23.6927C6.32232 26.8769 9.36876 28.8237 13.0687 29.7662C14.7245 30.2073 16.444 30.3468 18.1475 30.1782C20.1361 29.9521 22.0513 29.2824 23.7567 28.2168C25.5406 27.0928 27.1685 25.7305 28.5971 24.1664C30.5705 22.0747 32.2719 19.7593 33.9516 17.4259C35.4863 15.294 37.0089 13.1528 38.5678 11.0394C39.5618 9.69727 40.6517 8.43171 41.8287 7.25299C41.8968 7.18453 41.9561 7.107 42.0653 6.98061C41.8935 7.01245 41.7358 7.09872 41.615 7.22712C40.285 8.27347 39.0637 9.45552 37.97 10.7548C36.412 12.6069 34.8966 14.4964 33.3816 16.3854C31.8096 18.4165 30.1329 20.3614 28.3584 22.2116C26.9591 23.662 25.3876 24.9292 23.6804 25.9837C21.2801 27.4221 18.7087 28.1512 15.9083 27.9053C10.5888 27.4382 6.11547 23.7051 4.83951 18.9059C3.90763 15.4009 4.60724 12.1863 6.72175 9.30289C8.7197 6.57836 11.4287 4.99886 14.7123 4.43409C17.1978 3.96774 19.7626 4.24044 22.0999 5.21953C24.0228 6.03405 25.582 7.34762 26.9526 8.91312C27.2862 9.29417 27.5968 9.69607 27.944 10.1201L26.9885 11.6296C26.8737 11.4988 26.7779 11.4005 26.694 11.2926C25.9964 10.3639 25.2192 9.50002 24.3717 8.71113C22.0395 6.61123 19.3058 5.77102 16.2266 5.98202C14.7033 6.06225 13.2123 6.45943 11.8457 7.14905C9.38438 8.4289 7.53771 10.3161 6.66851 13.026C5.56816 16.4565 6.24452 19.5695 8.53584 22.3087C10.0319 24.0707 12.0552 25.2834 14.2945 25.7602C16.8379 26.406 19.5213 26.1527 21.9046 25.0418C22.3721 24.8245 22.8054 24.5313 23.2572 24.2782C23.3424 24.2272 23.4164 24.159 23.4747 24.0777C23.5329 23.9964 23.5742 23.9038 23.5959 23.8057C23.767 23.2654 23.9773 22.7379 24.1744 22.2062C24.2907 21.8925 24.42 21.5835 24.5283 21.2671C24.6242 21.0062 24.6619 20.7268 24.6386 20.4491C24.6154 20.1715 24.5317 19.9027 24.3937 19.6621C24.3041 19.4999 24.2281 19.3298 24.1079 19.0863C24.8483 19.4672 25.4099 20.1318 25.6691 20.9341C25.8257 20.3159 25.9752 19.6958 26.1406 19.0801C26.4227 17.9773 26.834 16.9129 27.3654 15.9099C27.7836 15.1599 28.2815 14.4589 28.8501 13.8196C29.0877 13.5464 29.3147 13.2632 29.5385 12.978C29.8584 12.563 30.092 12.0861 30.225 11.5762C30.3581 11.0664 30.3879 10.5343 30.3125 10.0124C30.256 9.47719 30.1791 8.9442 30.1408 8.3967C30.5346 9.03263 30.8803 9.6982 31.1747 10.3876C31.4676 11.0837 31.5964 11.8399 31.5509 12.5958L31.6619 12.6174C31.7396 12.4883 31.8167 12.3588 31.8952 12.2301C32.8571 10.6543 33.8079 9.06502 35.0411 7.69023C36.0686 6.50956 37.1542 5.38258 38.2936 4.31361C40.6193 2.17173 43.5081 0.766655 46.6062 0.270404C49.9218 -0.320155 53.3337 0.0497414 56.4528 1.33791C58.9223 2.324 61.1336 3.87942 62.9131 5.88206C64.7811 7.96708 66.0424 10.5401 66.556 13.3132C66.7491 14.4947 66.8011 15.6956 66.711 16.8898C66.6303 18.334 66.3494 19.7594 65.8767 21.1235C65.2213 23.0007 64.1977 24.7225 62.868 26.1843C60.2705 29.099 56.7837 31.0374 52.9708 31.6863C49.5207 32.3443 45.9576 31.9778 42.7065 30.6306C41.8555 30.2778 41.044 29.8334 40.2858 29.305C39.5395 28.7875 38.802 28.2496 38.1095 27.6612C37.519 27.1594 36.9979 26.573 36.4291 26.0073C36.7548 25.493 37.0542 25.0202 37.3801 24.5054C37.7468 24.8953 38.0821 25.252 38.4175 25.6085C38.5464 25.7455 38.6664 25.8928 38.8061 26.0174C41.0589 28.0268 43.5795 29.4981 46.5794 29.9965C51.2235 30.768 55.5122 29.9036 59.3688 27.0938C60.8344 26.0301 62.0826 24.6861 63.0437 23.1368C64.1884 21.3053 64.8639 19.2109 65.0086 17.045C65.1637 15.4579 65.0195 13.8553 64.5837 12.3233C63.7301 9.46333 62.0007 6.95614 59.6481 5.16782C57.354 3.36338 54.6226 2.22521 51.7441 1.87424C49.5444 1.6087 47.3154 1.75939 45.1695 2.31872C45.0722 2.34067 44.9872 2.40063 44.9328 2.48572C45.0881 2.48768 45.2435 2.49094 45.3988 2.49141C48.6834 2.48297 51.9223 3.27462 54.8451 4.80027C56.6647 5.7176 58.2803 7.00489 59.5922 8.58266C61.1361 10.4164 62.0574 12.7086 62.2189 15.1181C62.507 19.4576 60.7702 22.8361 57.3728 25.3544C54.749 27.2992 51.7618 27.9986 48.5429 27.7634C47.0075 27.6677 45.5039 27.2764 44.1117 26.6105C43.3721 26.2548 42.6705 25.8223 42.0182 25.3199C40.9678 24.5043 40.0104 23.5716 39.1636 22.5394C39.072 22.4278 38.9849 22.3123 38.8679 22.1633L39.8307 20.6396C39.9717 20.8199 40.076 20.9549 40.182 21.0885C41.338 22.6231 42.7869 23.9039 44.4416 24.8539C45.5981 25.4768 46.862 25.8663 48.1637 26.001C49.8501 26.2107 51.5609 26.0621 53.188 25.5645C55.2815 24.9351 57.1372 23.672 58.5084 21.9431C59.8294 20.2833 60.5577 18.2162 60.574 16.0802C60.5904 13.9441 59.8938 11.8657 58.5984 10.1852C57.0276 8.14528 54.9715 6.91263 52.5386 6.27266C51.7211 6.04708 50.8796 5.92453 50.0328 5.9078C49.2047 5.88532 48.3817 6.04562 47.6202 6.37768C46.8588 6.70973 46.177 7.20567 45.6217 7.83141C45.1517 8.34168 44.7306 8.89915 44.297 9.44322C43.8091 10.0555 43.3466 10.6891 42.8469 11.291C42.3034 11.9557 41.6376 12.5059 40.8869 12.9107C40.8304 12.9449 40.7762 12.9827 40.7245 13.024L43.988 12.8247L44.009 12.9106C43.8312 12.9872 43.6567 13.0736 43.475 13.1389C41.7578 13.7685 40.3 14.9702 39.3378 16.549C39.0555 16.9884 38.7994 17.4455 38.5393 17.8993C38.2936 18.3279 38.0614 18.7645 37.8183 19.1947C37.1773 20.3631 36.2242 21.3226 35.0693 21.962C34.9177 22.0451 34.7771 22.1477 34.651 22.2672C35.5397 22.1662 36.4159 21.9617 37.3377 22.2132C37.076 22.3788 36.8036 22.5262 36.5223 22.6543C35.1309 23.184 34.086 24.1661 33.1403 25.2841C32.8875 25.5829 32.6297 25.8775 32.3829 26.1814C31.5131 27.2733 30.2613 27.9793 28.8907 28.1509C28.2007 28.2493 27.5448 28.5177 26.9799 28.9328C24.7606 30.4883 22.2021 31.4693 19.5262 31.7906C16.6117 32.1827 13.6475 31.8808 10.8671 30.9086C8.49075 30.0897 6.33296 28.7217 4.56285 26.9118C2.28887 24.5733 0.724161 21.8344 0.164704 18.5534C-0.0185107 17.2954 -0.0527769 16.0197 0.0626316 14.7534C0.150374 13.47 0.412308 12.2051 0.840973 10.9948C1.52923 9.00395 2.62476 7.18449 4.05513 5.65671C6.45541 3.1256 9.51603 1.3452 12.8767 0.525097C16.2374 -0.295011 19.7583 -0.120699 23.025 1.02752C25.2325 1.83964 27.2461 3.11846 28.9332 4.77983C29.4203 5.25295 29.897 5.73724 30.4105 6.24832Z" fill="white"/>
<path d="M149.611 30.2675C147.857 30.2653 146.121 29.911 144.502 29.2249C142.883 28.5387 141.413 27.5342 140.175 26.2688C138.938 25.0034 137.958 23.5021 137.292 21.8506C136.626 20.1992 136.286 18.4302 136.292 16.6449C136.298 14.8595 136.65 13.093 137.327 11.4463C138.005 9.79962 138.995 8.30521 140.241 7.04861C141.487 5.79201 142.964 4.7979 144.588 4.12322C146.211 3.44854 147.95 3.10653 149.703 3.11677C153.241 3.15183 156.622 4.60668 159.112 7.16515C161.601 9.72363 162.999 13.179 163 16.7803C162.959 24.0685 157.137 30.3622 149.611 30.2675ZM158.397 16.4831C158.38 13.2111 156.886 10.5448 153.916 8.77779C152.084 7.68793 150.071 7.46218 148.003 7.837C145.029 8.37615 142.913 10.0998 141.65 12.8624C140.788 14.7493 140.707 16.7558 141.101 18.7779C141.475 20.7791 142.553 22.5727 144.133 23.8229C145.58 24.9996 147.366 25.6615 149.218 25.7074C151.066 25.7831 152.824 25.425 154.385 24.3712C157.068 22.5609 158.379 19.9905 158.397 16.4831Z" fill="white"/>
<path d="M120.194 29.7512H115.647V3.64811C115.818 3.63933 115.971 3.62464 116.124 3.62457C119.311 3.6233 122.498 3.63159 125.685 3.62014C127.114 3.615 128.499 3.82177 129.755 4.54024C132.176 5.9252 133.772 7.94287 134.193 10.7992C134.452 12.5166 134.174 14.2735 133.397 15.8204C132.619 17.3674 131.383 18.6258 129.864 19.417C129.713 19.496 129.563 19.5776 129.358 19.687C131.281 23.0356 133.192 26.3638 135.134 29.7451C134.934 29.76 134.811 29.7771 134.688 29.7773C133.295 29.7792 131.903 29.7696 130.51 29.7855C130.385 29.7958 130.259 29.766 130.151 29.7001C130.043 29.6342 129.957 29.5355 129.907 29.4179C128.281 26.5472 126.638 23.6862 125.014 20.8145C124.954 20.6778 124.854 20.5638 124.727 20.4885C124.6 20.4132 124.453 20.3804 124.306 20.3948C123.101 20.4172 121.895 20.4025 120.689 20.4045C120.536 20.4048 120.382 20.4202 120.194 20.4305L120.194 29.7512ZM120.209 16.1622C120.317 16.1735 120.374 16.1845 120.431 16.1845C122.338 16.1853 124.245 16.1966 126.153 16.1796C126.981 16.169 127.773 15.8346 128.366 15.2457C129.666 14.0127 129.968 12.4866 129.512 10.8015C129.296 9.99094 128.82 9.27704 128.16 8.77291C127.501 8.26878 126.694 8.00327 125.869 8.01847C124.134 8.01452 122.399 8.0145 120.664 8.01843C120.513 8.01856 120.362 8.03289 120.209 8.04076V16.1622Z" fill="white"/>
<path d="M96.4748 3.64507H112.032V8.10064H101.068V14.3355H111.116V18.7816H101.116C101.025 19.1459 100.997 24.5979 101.078 25.2954H112.215V29.7033C111.883 29.794 97.0024 29.8177 96.4748 29.7284L96.4748 3.64507Z" fill="white"/>
<path d="M79.7039 20.9656V29.7489H75.1697V3.67574C75.2582 3.65089 75.3488 3.63454 75.4402 3.6269C78.7551 3.63305 82.0713 3.58405 85.3844 3.6665C89.1952 3.76134 92.578 6.90746 93.1397 10.7488C93.4234 12.6893 93.262 14.58 92.3282 16.3218C90.8661 19.049 88.6211 20.6544 85.5428 20.9009C84.3155 20.9991 83.0767 20.9517 81.8431 20.9643C81.1555 20.9713 80.4678 20.9656 79.7039 20.9656ZM79.7277 16.5202C79.8007 16.5338 79.8744 16.5434 79.9484 16.5489C81.6122 16.5472 83.2765 16.5664 84.9398 16.5348C85.7052 16.5155 86.4468 16.26 87.0664 15.802C87.686 15.3441 88.1544 14.7054 88.4095 13.9704C88.6507 13.2654 88.7376 12.5152 88.664 11.7724C88.6047 10.755 88.1651 9.79938 87.4353 9.1017C86.7055 8.40403 85.741 8.01729 84.7399 8.02093C83.1908 8.00758 81.6416 8.01717 80.0925 8.0193C79.9708 8.01947 79.8491 8.04144 79.7277 8.05325V16.5202Z" fill="white"/>
</g>
<defs>
<clipPath id="clip0_1_337">
<rect width="163" height="32" fill="white"/>
</clipPath>
</defs>
</svg>
