<svg width="106" height="127" viewBox="0 0 106 127" fill="none" xmlns="http://www.w3.org/2000/svg">
<path d="M103.157 29.1466L55.1644 0.595185C53.8307 -0.198069 52.1695 -0.198069 50.8357 0.595185L2.84288 29.1466C1.56023 29.9099 0.773926 31.2925 0.773926 32.785V49.0834C0.773926 83.4116 20.6078 114.765 51.4715 126.715C52.454 127.095 53.5449 127.096 54.5284 126.715C85.3172 114.795 105.226 83.5093 105.226 49.0834V32.785C105.226 31.2922 104.44 29.9099 103.157 29.1466ZM73.9145 53.9875L47.3822 80.5201C45.729 82.1733 43.0486 82.1733 41.3953 80.5201L32.0836 71.2087C30.4304 69.5557 30.4304 66.875 32.0836 65.2218C33.7369 63.5688 36.4175 63.5688 38.0705 65.2218L44.3885 71.5398L67.9277 48.0007C69.5806 46.3477 72.2613 46.3477 73.9145 48.0007C75.568 49.6541 75.568 52.3345 73.9145 53.9875Z" fill="#FFE2CA"/>
</svg>
