<svg width="150" height="80" viewBox="0 0 150 80" fill="none" xmlns="http://www.w3.org/2000/svg">
<path d="M148.88 37.0688C147.541 35.5753 115.337 0.449219 75.0001 0.449219C34.6636 0.449219 2.45933 35.5753 1.12017 37.0688C-0.373389 38.7382 -0.373389 41.2618 1.12017 42.9312C2.45933 44.4247 34.6642 79.5508 75.0001 79.5508C115.336 79.5508 147.541 44.4247 148.88 42.9312C150.373 41.2618 150.373 38.7382 148.88 37.0688ZM75.0001 70.7617C58.0399 70.7617 44.2384 56.9603 44.2384 40C44.2384 23.0397 58.0399 9.23828 75.0001 9.23828C91.9604 9.23828 105.762 23.0397 105.762 40C105.762 56.9603 91.9604 70.7617 75.0001 70.7617Z" fill="#FFE2CA"/>
<path d="M79.3948 31.2109C79.3948 26.79 81.5894 22.9009 84.9281 20.5088C81.9322 18.9751 78.5906 18.0273 75.0002 18.0273C62.8851 18.0273 53.0276 27.8849 53.0276 40C53.0276 52.1151 62.8851 61.9727 75.0002 61.9727C85.8471 61.9727 94.8248 54.0525 96.5985 43.7037C87.7491 46.5528 79.3948 39.86 79.3948 31.2109Z" fill="#FFE2CA"/>
</svg>
