<svg width="99" height="99" viewBox="0 0 99 99" fill="none" xmlns="http://www.w3.org/2000/svg">
<g filter="url(#filter0_d_196_850)">
<ellipse cx="49.3319" cy="46.3663" rx="29.3319" ry="29.3663" fill="white"/>
</g>
<path d="M63.0887 43.2078C61.1932 40.117 56.8814 34.9314 49.3137 34.9314C41.7461 34.9314 37.4343 40.117 35.5387 43.2078C34.9527 44.1567 34.6423 45.2503 34.6423 46.3659C34.6423 47.4815 34.9527 48.5751 35.5387 49.524C37.4343 52.6148 41.7461 57.8004 49.3137 57.8004C56.8814 57.8004 61.1932 52.6148 63.0887 49.524C63.6747 48.5751 63.9851 47.4815 63.9851 46.3659C63.9851 45.2503 63.6747 44.1567 63.0887 43.2078ZM61.0049 48.2429C59.377 50.8932 55.6922 55.3532 49.3137 55.3532C42.9353 55.3532 39.2504 50.8932 37.6225 48.2429C37.2744 47.6789 37.09 47.0289 37.09 46.3659C37.09 45.7029 37.2744 45.0529 37.6225 44.4889C39.2504 41.8386 42.9353 37.3786 49.3137 37.3786C55.6922 37.3786 59.377 41.8337 61.0049 44.4889C61.3531 45.0529 61.5375 45.7029 61.5375 46.3659C61.5375 47.0289 61.3531 47.6789 61.0049 48.2429Z" fill="#418179"/>
<path d="M49.3142 40.2473C48.1056 40.2473 46.9241 40.6061 45.9192 41.2784C44.9143 41.9506 44.131 42.9061 43.6685 44.024C43.206 45.142 43.085 46.3721 43.3208 47.5589C43.5566 48.7456 44.1386 49.8357 44.9932 50.6914C45.8478 51.547 46.9366 52.1297 48.122 52.3657C49.3074 52.6018 50.5361 52.4806 51.6527 52.0176C52.7693 51.5545 53.7237 50.7704 54.3952 49.7643C55.0666 48.7582 55.425 47.5753 55.425 46.3653C55.4231 44.7433 54.7786 43.1883 53.633 42.0414C52.4875 40.8945 50.9343 40.2493 49.3142 40.2473ZM49.3142 50.0361C48.589 50.0361 47.8801 49.8208 47.2772 49.4174C46.6742 49.0141 46.2043 48.4408 45.9268 47.77C45.6493 47.0993 45.5767 46.3612 45.7181 45.6492C45.8596 44.9371 46.2088 44.283 46.7216 43.7697C47.2344 43.2563 47.8877 42.9067 48.5989 42.765C49.3101 42.6234 50.0473 42.6961 50.7173 42.9739C51.3873 43.2518 51.9599 43.7223 52.3628 44.3259C52.7656 44.9296 52.9807 45.6393 52.9807 46.3653C52.9807 47.3389 52.5944 48.2725 51.9068 48.9609C51.2192 49.6493 50.2866 50.0361 49.3142 50.0361Z" fill="#418179"/>
<defs>
<filter id="filter0_d_196_850" x="0" y="0.0201018" width="98.6638" height="98.7327" filterUnits="userSpaceOnUse" color-interpolation-filters="sRGB">
<feFlood flood-opacity="0" result="BackgroundImageFix"/>
<feColorMatrix in="SourceAlpha" type="matrix" values="0 0 0 0 0 0 0 0 0 0 0 0 0 0 0 0 0 0 127 0" result="hardAlpha"/>
<feOffset dy="3.0201"/>
<feGaussianBlur stdDeviation="10"/>
<feComposite in2="hardAlpha" operator="out"/>
<feColorMatrix type="matrix" values="0 0 0 0 1 0 0 0 0 1 0 0 0 0 1 0 0 0 1 0"/>
<feBlend mode="normal" in2="BackgroundImageFix" result="effect1_dropShadow_196_850"/>
<feBlend mode="normal" in="SourceGraphic" in2="effect1_dropShadow_196_850" result="shape"/>
</filter>
</defs>
</svg>
