<svg width="43" height="43" viewBox="0 0 43 43" fill="none" xmlns="http://www.w3.org/2000/svg">
<path d="M21.3361 0.770508L20.7543 0.778502C9.54407 1.08693 0.541 10.2813 0.541 21.5656C0.541 33.0237 9.8572 42.3607 21.3361 42.3607C32.7942 42.3607 42.1312 33.0237 42.1312 21.5656C42.1312 10.0867 32.7942 0.770508 21.3361 0.770508ZM17.2187 13.2476C17.8425 12.6237 18.8199 12.6237 19.4229 13.2476L26.6804 20.4635C26.9715 20.7546 27.1379 21.1497 27.1379 21.5656C27.1379 21.9815 26.9715 22.3766 26.6804 22.6677L19.4229 29.8836C19.1318 30.1956 18.7367 30.3411 18.3416 30.3411C17.9257 30.3411 17.5306 30.1956 17.2187 29.8836C16.6156 29.2598 16.6156 28.2824 17.2395 27.6793L23.374 21.5656L17.2395 15.4518C16.6156 14.8488 16.6156 13.8506 17.2187 13.2476Z" fill="#FFE2CA"/>
</svg>
