<svg width="128" height="127" viewBox="0 0 128 127" fill="none" xmlns="http://www.w3.org/2000/svg">
<path d="M122.17 37.4152L109.204 29.6578L106.283 17.5655C104.986 12.2024 100.019 8.6271 94.5723 9.05573L79.7367 10.2039L71.2381 2.67919C67.0523 -0.892442 60.9625 -0.892441 56.7623 2.67546L48.2635 10.2037L33.4278 9.05548C28.0429 8.6777 23.0106 12.2057 21.8514 17.1254C21.6116 17.8711 17.2789 31.3388 17.5602 30.4639L5.83208 37.4112C1.13407 40.2962 -0.748105 46.0879 1.35558 51.1823L6.41698 63.4489L1.3593 75.7121C-0.748105 80.81 1.13755 86.5981 5.83208 89.4795L18.7846 97.1826L21.7168 109.329C23.0066 114.689 27.9519 118.246 33.4275 117.839L48.1032 116.706L56.7618 124.319C58.8586 126.106 61.4276 127 64.0001 127C66.5688 127 69.1416 126.106 71.2381 124.318L79.8967 116.705L94.5723 117.839C100.117 118.278 104.993 114.692 106.283 109.329L109.204 97.2369L122.17 89.4795C126.861 86.5981 128.743 80.81 126.643 75.7121L121.581 63.4492L126.647 51.1788C128.747 46.0884 126.865 40.2965 122.17 37.4152ZM64.0001 104.428C41.4325 104.428 23.0723 86.0676 23.0723 63.5C23.0723 40.9325 41.4325 22.5723 64.0001 22.5723C86.5676 22.5723 104.928 40.9325 104.928 63.5C104.928 86.0676 86.5676 104.428 64.0001 104.428Z" fill="#FFE2CA"/>
<path d="M64 30.0137C45.5346 30.0137 30.5137 45.0347 30.5137 63.5001C30.5137 81.9654 45.5346 96.9864 64 96.9864C82.4654 96.9864 97.4863 81.9654 97.4863 63.5001C97.4863 45.0347 82.4654 30.0137 64 30.0137ZM85.2341 54.9685L62.9098 77.2927C62.1831 78.0195 61.2311 78.3829 60.2793 78.3829C59.3275 78.3829 58.3753 78.0195 57.6488 77.2927L42.7659 62.4099C41.3126 60.9566 41.3126 58.6019 42.7659 57.1486C44.2193 55.6953 46.574 55.6953 48.0273 57.1486L60.2793 69.4008L79.973 49.7072C81.4263 48.2539 83.781 48.2539 85.2343 49.7072C86.6876 51.1605 86.6876 53.5152 85.2341 54.9685Z" fill="#FFE2CA"/>
</svg>
